<?xml version="1.0" encoding="iso-8859-1"?>
<!-- Generator: Adobe Illustrator 19.0.0, SVG Export Plug-In . SVG Version: 6.00 Build 0)  -->
<svg version="1.1" id="Layer_1" xmlns="http://www.w3.org/2000/svg" xmlns:xlink="http://www.w3.org/1999/xlink" x="0px" y="0px"
	 viewBox="0 0 512 512" style="enable-background:new 0 0 512 512;" xml:space="preserve">
<g>
	<path style="fill:#A3E261;" d="M248.301,129.716l-98.366,26.403c-0.727-0.692-1.43-1.383-2.134-2.087
		c-5.018-5.018-9.672-10.411-13.905-16.132c-17.586-23.765-27.986-53.157-27.986-84.977V0c62.631,0,115.858,40.261,135.192,96.302
		C244.784,106.925,247.234,118.121,248.301,129.716z"/>
	<path style="fill:#A3E261;" d="M391.911,0v52.923c0,28.103-8.113,54.318-22.124,76.418c-4.69,7.421-10.059,14.374-16.015,20.787
		l-104.228-20.412c1.067-11.595,3.517-22.792,7.187-33.414C276.064,40.261,329.292,0,391.911,0z"/>
</g>
<g>
	<path style="fill:#91C950;" d="M241.103,96.302c3.681,10.622,6.132,21.819,7.199,33.414l-98.366,26.403
		c-0.727-0.692-1.43-1.383-2.134-2.087c-5.018-5.018-9.672-10.411-13.905-16.132c23.261-26.379,56.827-41.597,92.187-41.597H241.103
		z"/>
	<path style="fill:#91C950;" d="M369.787,129.341c-4.69,7.421-10.059,14.374-16.015,20.787l-104.228-20.412
		c1.067-11.595,3.517-22.792,7.187-33.414h29.182C317.251,96.302,347.171,108.261,369.787,129.341z"/>
</g>
<g>
	<path style="fill:#7CAF3F;" d="M304.963,132.912c0.789-7.161,2.811-13.58,5.265-19.57c2.476-5.986,5.439-11.557,8.644-16.889
		c6.437-10.644,13.824-20.371,21.637-29.634c-5.359,10.855-10.126,21.978-13.622,33.253c-1.735,5.63-3.141,11.302-3.972,16.882
		c-0.83,5.563-1.066,11.074-0.365,15.957l1.263,8.793h-19.817L304.963,132.912z"/>
	<path style="fill:#7CAF3F;" d="M190.453,132.912c0.701-4.884,0.465-10.393-0.365-15.957c-0.831-5.58-2.237-11.252-3.972-16.882
		c-3.496-11.275-8.263-22.398-13.622-33.253c7.813,9.263,15.2,18.99,21.637,29.634c3.205,5.332,6.168,10.901,8.644,16.889
		c2.454,5.99,4.476,12.408,5.265,19.57l0.968,8.793h-19.817L190.453,132.912z"/>
</g>
<path style="fill:#F94848;" d="M245.818,512h20.365c46.938,0,88.556-30.176,103.147-74.787l43.687-133.565
	c12.926-39.52,5.014-82.895-21.033-115.305l-10.182-12.67c-23.35-29.055-58.615-45.955-95.89-45.955h-59.823
	c-37.275,0-72.54,16.9-95.89,45.955l-10.182,12.67c-26.046,32.41-33.959,75.785-21.033,115.305l43.687,133.565
	C157.262,481.824,198.88,512,245.818,512z"/>
<g>
	<path style="fill:#DB3A3A;" d="M256.002,511.995h-10.177c-46.944,0-88.565-30.166-103.149-74.789L98.98,303.645
		c-12.92-39.522-5.006-82.89,21.033-115.307l10.188-12.662c23.355-29.064,58.609-45.959,95.892-45.959h20.635
		c-30.67,0-58.855,16.895-73.311,43.942l-21.197,39.663c-9.309,17.41-12.111,37.564-7.926,56.862l40.05,184.07
		C191.671,487.961,221.509,511.995,256.002,511.995z"/>
	<path style="fill:#DB3A3A;" d="M167.486,248.404c-4.856,0-8.793-3.937-8.793-8.793v-27.805c0-4.856,3.937-8.793,8.793-8.793
		s8.793,3.937,8.793,8.793v27.805C176.279,244.467,172.342,248.404,167.486,248.404z"/>
	<path style="fill:#DB3A3A;" d="M180.383,337.466c-4.856,0-8.793-3.937-8.793-8.793v-27.805c0-4.856,3.937-8.793,8.793-8.793
		s8.793,3.937,8.793,8.793v27.805C189.176,333.529,185.239,337.466,180.383,337.466z"/>
	<path style="fill:#DB3A3A;" d="M334.319,248.404c-4.856,0-8.793-3.937-8.793-8.793v-27.805c0-4.856,3.937-8.793,8.793-8.793
		c4.856,0,8.793,3.937,8.793,8.793v27.805C343.112,244.467,339.175,248.404,334.319,248.404z"/>
	<path style="fill:#DB3A3A;" d="M368.083,333.808c-4.856,0-8.793-3.937-8.793-8.793v-27.806c0-4.856,3.937-8.793,8.793-8.793
		c4.856,0,8.793,3.937,8.793,8.793v27.805C376.876,329.871,372.939,333.808,368.083,333.808z"/>
	<path style="fill:#DB3A3A;" d="M250.904,272.238c-4.856,0-8.793-3.937-8.793-8.793V235.64c0-4.856,3.937-8.793,8.793-8.793
		c4.856,0,8.793,3.937,8.793,8.793v27.805C259.697,268.301,255.76,272.238,250.904,272.238z"/>
	<path style="fill:#DB3A3A;" d="M230.797,384.695c-4.856,0-8.793-3.937-8.793-8.793v-27.805c0-4.856,3.937-8.793,8.793-8.793
		s8.793,3.937,8.793,8.793v27.805C239.59,380.758,235.653,384.695,230.797,384.695z"/>
	<path style="fill:#DB3A3A;" d="M298.569,375.515c-4.856,0-8.793-3.937-8.793-8.793v-27.805c0-4.856,3.937-8.793,8.793-8.793
		c4.856,0,8.793,3.937,8.793,8.793v27.805C307.362,371.578,303.425,375.515,298.569,375.515z"/>
	<path style="fill:#DB3A3A;" d="M276.722,468.862c-4.856,0-8.793-3.937-8.793-8.793v-27.805c0-4.856,3.937-8.793,8.793-8.793
		c4.856,0,8.793,3.937,8.793,8.793v27.805C285.515,464.925,281.578,468.862,276.722,468.862z"/>
</g>
<g>
</g>
<g>
</g>
<g>
</g>
<g>
</g>
<g>
</g>
<g>
</g>
<g>
</g>
<g>
</g>
<g>
</g>
<g>
</g>
<g>
</g>
<g>
</g>
<g>
</g>
<g>
</g>
<g>
</g>
</svg>
